<svg xmlns="http://www.w3.org/2000/svg" viewBox="0 0 64 64">
  <defs>
    <radialGradient id="forest" cx="34%" cy="26%" r="74%">
      <stop offset="0%" stop-color="#d8ffd3"/>
      <stop offset="50%" stop-color="#64c96a"/>
      <stop offset="100%" stop-color="#1c6a2e"/>
    </radialGradient>
  </defs>
  <circle cx="32" cy="32" r="30" fill="#11391b"/>
  <circle cx="32" cy="32" r="27.5" fill="url(#forest)" stroke="#c9ffd4" stroke-width="2"/>
  <path d="M14 41c8-7 16-8 24-3 4 2 7 2 12 1-2 6-8 10-18 10-8 0-14-3-18-8z" fill="#1f7b35" opacity=".9"/>
  <path d="M20 28c4-7 8-11 12-12 0 5 2 7 6 9-3 1-6 3-9 8-3 0-6-2-9-5z" fill="#9af37a"/>
  <path d="M36 21c2-4 5-6 8-7-1 3 0 5 2 7-3 0-6 1-10 0z" fill="#c5ff98"/>
  <circle cx="22" cy="18" r="5.5" fill="#fff" opacity=".2"/>
</svg>
