<svg xmlns="http://www.w3.org/2000/svg" viewBox="0 0 64 64">
  <defs>
    <radialGradient id="nebula" cx="34%" cy="24%" r="74%">
      <stop offset="0%" stop-color="#f0d6ff"/>
      <stop offset="45%" stop-color="#b06dff"/>
      <stop offset="100%" stop-color="#3d1f73"/>
    </radialGradient>
  </defs>
  <circle cx="32" cy="32" r="30" fill="#20103d"/>
  <circle cx="32" cy="32" r="27.5" fill="url(#nebula)" stroke="#e8cfff" stroke-width="2"/>
  <path d="M11 34c4-4 9-5 15-3 7 2 12-2 19-4 5-1 8 0 10 1-4 5-8 7-13 8-7 1-12 4-18 6-5 2-9 2-13-1z" fill="#6de7ff" opacity=".82"/>
  <circle cx="22" cy="25" r="2" fill="#fff"/>
  <circle cx="30" cy="21" r="1.7" fill="#fff"/>
  <circle cx="39" cy="25" r="1.5" fill="#fff"/>
  <circle cx="44" cy="33" r="1.8" fill="#fff"/>
  <circle cx="20" cy="17" r="5.5" fill="#fff" opacity=".2"/>
</svg>
